<?xml version="1.0" encoding="utf-8"?>
<!-- Generator: Adobe Illustrator 27.0.0, SVG Export Plug-In . SVG Version: 6.00 Build 0)  -->
<svg version="1.1" id="Layer_1" xmlns="http://www.w3.org/2000/svg" xmlns:xlink="http://www.w3.org/1999/xlink" x="0px" y="0px"
	 viewBox="0 0 340.2 75.4" style="enable-background:new 0 0 340.2 75.4;" xml:space="preserve">
<style type="text/css">
	.st0{fill:#CC53A3;}
</style>
<g>
	<g>
		<path class="st0" d="M52.7,1.5c-2.7-2.3-6.7-1.9-9,0.8s-1.9,6.7,0.8,9c2.7,2.3,6.7,1.9,9-0.8C55.7,7.8,55.4,3.8,52.7,1.5z
			 M51.8,9.1c-1.5,1.8-4.2,2-6,0.5c-1.8-1.5-2-4.2-0.5-6c1.5-1.8,4.2-2,6-0.5C53.1,4.6,53.3,7.3,51.8,9.1z"/>
		<path class="st0" d="M40.8,15.6c-10.5-8.8-26.2-7.4-35,3.1s-7.4,26.2,3.1,35c10.5,8.8,26.2,7.4,35-3.1
			C52.7,40.1,51.3,24.4,40.8,15.6z M37.9,45.6c-6,7.2-16.8,8.1-24,2.1c-7.2-6-8.1-16.8-2.1-24c6-7.2,16.8-8.1,24-2.1
			C43,27.7,43.9,38.4,37.9,45.6z"/>
		<path class="st0" d="M29.4,29.2c-3-2.5-7.5-2.1-10,0.9c-2.5,3-2.1,7.5,0.9,10c3,2.5,7.5,2.1,10-0.9C32.8,36.2,32.4,31.7,29.4,29.2
			z M28.1,37.4c-1.5,1.8-4.2,2-6,0.5c-1.8-1.5-2-4.2-0.5-6c1.5-1.8,4.2-2,6-0.5C29.4,32.9,29.6,35.6,28.1,37.4z"/>
		<rect x="40.9" y="8.9" transform="matrix(0.766 0.6428 -0.6428 0.766 18.7853 -23.9661)" class="st0" width="2.8" height="9.9"/>
	</g>
	<g>
		<g>
			<path class="st0" d="M274.5,14c0,1.2-0.3,2.2-0.8,3.1c-0.5,0.9-1.2,1.6-2,2.1c-0.6,0.4-1.3,0.7-2,0.8c-0.7,0.1-1.5,0.2-2.5,0.2
				h-4.3V7.7h4.5c1,0,1.9,0.1,2.6,0.3c0.7,0.2,1.3,0.4,1.8,0.7c0.8,0.5,1.5,1.3,2,2.1C274.2,11.7,274.5,12.8,274.5,14z M271.2,14
				c0-0.8-0.1-1.5-0.4-2.1c-0.3-0.6-0.8-1-1.4-1.4c-0.3-0.1-0.7-0.3-1-0.3c-0.3-0.1-0.8-0.1-1.5-0.1H266v7.8h0.8
				c0.8,0,1.3,0,1.6-0.1c0.4-0.1,0.7-0.2,1.1-0.4c0.6-0.3,1-0.8,1.3-1.3C271,15.5,271.2,14.8,271.2,14z"/>
			<path class="st0" d="M285,16.1h-6.8c0,0.8,0.3,1.3,0.8,1.7c0.5,0.4,1.3,0.6,2.3,0.6c0.6,0,1.2-0.1,1.8-0.3c0.6-0.2,1-0.5,1.4-0.8
				h0.3v2.4c-0.7,0.3-1.3,0.5-1.9,0.6c-0.6,0.1-1.2,0.2-2,0.2c-1.9,0-3.3-0.5-4.3-1.3c-1-0.8-1.5-2.1-1.5-3.6c0-1.6,0.5-2.8,1.4-3.7
				c1-0.9,2.2-1.4,3.9-1.4c1.5,0,2.7,0.4,3.4,1.2c0.8,0.8,1.1,1.9,1.1,3.3V16.1z M282,14.3c0-0.6-0.2-1.1-0.5-1.4
				c-0.3-0.3-0.7-0.5-1.3-0.5c-0.6,0-1,0.1-1.4,0.5c-0.3,0.3-0.6,0.8-0.6,1.5H282z"/>
			<path class="st0" d="M295.6,20.3h-3v-4.7c0-0.4,0-0.8-0.1-1.2c-0.1-0.4-0.1-0.7-0.2-0.8c-0.1-0.2-0.3-0.3-0.5-0.5
				c-0.2-0.1-0.5-0.1-0.9-0.1c-0.2,0-0.5,0-0.8,0.1c-0.3,0.1-0.6,0.2-0.9,0.4v6.7h-3v-9.5h3v1c0.5-0.4,1-0.7,1.5-0.9
				c0.5-0.2,1-0.3,1.6-0.3c1,0,1.8,0.3,2.3,0.9c0.5,0.6,0.8,1.5,0.8,2.7V20.3z"/>
			<path class="st0" d="M303.4,18.1h-0.3c0,0.1-0.2,0.1-0.5,0.2c-0.2,0.1-0.5,0.1-0.6,0.1c-0.4,0-0.6,0-0.9-0.2
				c-0.2-0.1-0.3-0.3-0.4-0.5c-0.1-0.2-0.1-0.4-0.1-0.7c0-0.2,0-0.5,0-0.8v-3.4h2.8v-2.1h-2.8V8.1h-3v2.7h-1.2v2.1h1.2v4.4
				c0,1.2,0.3,2,0.9,2.5c0.6,0.5,1.4,0.7,2.5,0.7c0.5,0,1,0,1.3-0.1c0.3,0,0.7-0.1,1-0.2V18.1z"/>
			<path class="st0" d="M309.9,20.3h3v-6.5c0-1.1-0.4-2-1.1-2.5c-0.8-0.6-2-0.8-3.7-0.8c-0.7,0-1.4,0.1-2.1,0.2
				c-0.7,0.1-1.2,0.2-1.5,0.3v2.3h0.3c0.3-0.1,0.6-0.2,1.2-0.4c0.6-0.2,1.1-0.2,1.5-0.2c0.8,0,1.4,0.1,1.8,0.3
				c0.4,0.2,0.6,0.6,0.6,1.1v0c-0.9,0.1-1.7,0.2-2.5,0.3c-0.8,0.1-1.5,0.3-2,0.5c-0.5,0.2-1,0.6-1.3,1c-0.3,0.4-0.5,1-0.5,1.7
				c0,0.9,0.3,1.6,0.9,2.1c0.6,0.5,1.3,0.8,2.2,0.8c0.4,0,0.7,0,1.1-0.1c0.3-0.1,0.6-0.2,0.9-0.3c0.2-0.1,0.4-0.2,0.7-0.4
				c0.2-0.2,0.4-0.3,0.6-0.5V20.3z M309.1,18.3c-0.3,0.1-0.6,0.2-0.9,0.2c-0.4,0-0.6,0-0.8-0.1c-0.2,0-0.3-0.1-0.4-0.2
				c-0.2-0.1-0.2-0.3-0.3-0.4c0-0.1,0-0.3,0-0.5c0-0.3,0.1-0.6,0.2-0.7c0.1-0.2,0.4-0.3,0.7-0.4c0.2-0.1,0.6-0.2,1-0.2
				c0.5,0,0.9-0.1,1.3-0.1v2C309.7,18,309.4,18.2,309.1,18.3z"/>
			<path class="st0" d="M317.8,20.3h-3V7.2h3V20.3z"/>
		</g>
		<g>
			<path class="st0" d="M273.4,35.7c0,0.6-0.1,1.1-0.3,1.6c-0.2,0.5-0.6,0.9-1,1.2c-0.5,0.4-1,0.7-1.6,0.8c-0.6,0.2-1.3,0.2-2.2,0.2
				h-5.4V27h4.8c1,0,1.7,0.1,2.2,0.1c0.5,0.1,0.9,0.2,1.4,0.4c0.5,0.2,0.8,0.6,1,1c0.2,0.4,0.3,0.9,0.3,1.4c0,0.6-0.2,1.1-0.5,1.6
				c-0.3,0.5-0.8,0.8-1.4,1.1v0c0.8,0.2,1.5,0.5,1.9,1C273.1,34.2,273.4,34.9,273.4,35.7z M269.4,30.5c0-0.2-0.1-0.4-0.2-0.6
				c-0.1-0.2-0.3-0.4-0.5-0.5c-0.2-0.1-0.5-0.1-0.9-0.1c-0.3,0-0.8,0-1.5,0H266v2.7h0.5c0.5,0,0.9,0,1.3,0c0.3,0,0.6-0.1,0.8-0.2
				c0.3-0.1,0.5-0.3,0.6-0.5C269.3,31,269.4,30.8,269.4,30.5z M270.1,35.7c0-0.4-0.1-0.7-0.2-0.9c-0.2-0.2-0.4-0.4-0.8-0.5
				c-0.3,0-0.6-0.1-1-0.1c-0.4,0-0.9,0-1.3,0H266v3.2h0.2c0.9,0,1.5,0,1.9,0c0.4,0,0.7-0.1,1.1-0.2c0.3-0.2,0.6-0.3,0.7-0.6
				C270,36.3,270.1,36,270.1,35.7z"/>
			<path class="st0" d="M277.8,26.4h-3.2v2.3h3.2V26.4z M277.7,30.1h-3v9.5h3V30.1z"/>
			<path class="st0" d="M289.1,34.8c0,1.6-0.4,2.8-1.3,3.7c-0.9,0.9-2.1,1.3-3.8,1.3c-1.6,0-2.8-0.4-3.7-1.3
				c-0.9-0.9-1.3-2.1-1.3-3.7c0-1.6,0.5-2.8,1.3-3.7c0.9-0.9,2.2-1.3,3.7-1.3c1.6,0,2.9,0.4,3.8,1.4C288.7,32,289.1,33.2,289.1,34.8
				z M285.4,37.1c0.2-0.2,0.3-0.5,0.4-0.8c0.1-0.4,0.2-0.8,0.2-1.4c0-0.6-0.1-1-0.2-1.4c-0.1-0.4-0.2-0.7-0.4-0.9
				c-0.1-0.2-0.4-0.4-0.6-0.5c-0.3-0.1-0.6-0.1-0.8-0.1c-0.3,0-0.5,0-0.7,0.1c-0.2,0.1-0.5,0.2-0.7,0.5c-0.2,0.2-0.3,0.5-0.5,0.9
				c-0.1,0.4-0.1,0.9-0.1,1.5c0,0.5,0,1,0.1,1.4c0.1,0.3,0.3,0.7,0.4,0.9c0.2,0.2,0.4,0.4,0.6,0.5c0.2,0.1,0.5,0.2,0.8,0.2
				c0.3,0,0.5-0.1,0.8-0.1C285.1,37.5,285.3,37.3,285.4,37.1z"/>
			<path class="st0" d="M293.4,39.6h-3V26.4h3V39.6z"/>
			<path class="st0" d="M304.8,34.8c0,1.6-0.4,2.8-1.3,3.7c-0.9,0.9-2.1,1.3-3.8,1.3c-1.6,0-2.8-0.4-3.7-1.3
				c-0.9-0.9-1.4-2.1-1.4-3.7c0-1.6,0.5-2.8,1.4-3.7c0.9-0.9,2.1-1.3,3.7-1.3c1.6,0,2.9,0.4,3.8,1.4C304.4,32,304.8,33.2,304.8,34.8
				z M301.2,37.1c0.2-0.2,0.3-0.5,0.4-0.8c0.1-0.4,0.2-0.8,0.2-1.4c0-0.6-0.1-1-0.2-1.4c-0.1-0.4-0.2-0.7-0.4-0.9
				c-0.2-0.2-0.4-0.4-0.6-0.5c-0.3-0.1-0.6-0.1-0.8-0.1c-0.3,0-0.5,0-0.7,0.1c-0.2,0.1-0.4,0.2-0.7,0.5c-0.1,0.2-0.3,0.5-0.4,0.9
				c-0.1,0.4-0.2,0.9-0.2,1.5c0,0.5,0.1,1,0.2,1.4c0.1,0.3,0.2,0.7,0.4,0.9c0.1,0.2,0.4,0.4,0.6,0.5c0.2,0.1,0.5,0.2,0.8,0.2
				c0.3,0,0.5-0.1,0.8-0.1C300.8,37.5,301,37.3,301.2,37.1z"/>
			<path class="st0" d="M315.6,38.5c0,0.9-0.1,1.6-0.4,2.3c-0.3,0.6-0.6,1-1,1.4c-0.4,0.3-1,0.6-1.6,0.7c-0.7,0.2-1.4,0.2-2.2,0.2
				c-0.6,0-1.3,0-1.9-0.1c-0.6-0.1-1.2-0.2-1.7-0.3v-2.4h0.4c0.4,0.1,0.8,0.3,1.3,0.4c0.5,0.1,1,0.2,1.4,0.2c0.6,0,1-0.1,1.3-0.1
				c0.3-0.1,0.6-0.3,0.8-0.5c0.1-0.2,0.3-0.4,0.4-0.7c0.1-0.3,0.1-0.6,0.1-1v-0.2c-0.4,0.3-0.8,0.5-1.2,0.7
				c-0.5,0.2-0.9,0.3-1.5,0.3c-1.3,0-2.3-0.4-3-1.2c-0.7-0.8-1.1-2-1.1-3.7c0-0.8,0.1-1.5,0.3-2c0.2-0.6,0.5-1.1,0.9-1.5
				c0.4-0.4,0.8-0.7,1.3-0.9c0.6-0.2,1.1-0.3,1.7-0.3c0.5,0,0.9,0,1.4,0.2c0.4,0.1,0.8,0.3,1.1,0.5l0.1-0.4h2.9V38.5z M312.6,36.6
				v-4.3c-0.2-0.1-0.4-0.1-0.6-0.2c-0.2-0.1-0.5-0.1-0.7-0.1c-0.8,0-1.4,0.2-1.7,0.7c-0.4,0.5-0.6,1.1-0.6,1.9
				c0,0.9,0.2,1.6,0.5,1.9c0.3,0.4,0.8,0.5,1.4,0.5c0.3,0,0.6,0,0.9-0.1C312.1,36.8,312.4,36.7,312.6,36.6z"/>
			<path class="st0" d="M320.7,28.7h-3.2v-2.3h3.2V28.7z M320.6,39.6h-3v-9.5h3V39.6z"/>
			<path class="st0" d="M327.3,39.8c-0.8,0-1.5-0.1-2.2-0.3c-0.7-0.2-1.2-0.5-1.7-0.9c-0.5-0.4-0.9-0.9-1.2-1.5
				c-0.3-0.6-0.4-1.4-0.4-2.2c0-0.9,0.1-1.6,0.4-2.3c0.3-0.6,0.7-1.2,1.2-1.6c0.5-0.4,1.1-0.7,1.7-0.9c0.7-0.2,1.3-0.3,2.1-0.3
				c0.6,0,1.2,0.1,1.7,0.2c0.5,0.1,1,0.3,1.5,0.6v2.6h-0.4c-0.1-0.1-0.3-0.2-0.4-0.4c-0.2-0.1-0.4-0.3-0.6-0.4
				c-0.2-0.1-0.5-0.2-0.7-0.3c-0.3-0.1-0.6-0.1-1-0.1c-0.8,0-1.4,0.3-1.8,0.8c-0.4,0.5-0.7,1.2-0.7,2.1c0,0.9,0.2,1.6,0.7,2.1
				c0.4,0.5,1,0.7,1.9,0.7c0.4,0,0.7,0,1-0.1c0.3-0.1,0.6-0.2,0.7-0.3c0.2-0.1,0.4-0.2,0.5-0.4c0.1-0.1,0.3-0.3,0.4-0.4h0.4V39
				c-0.5,0.2-1,0.4-1.5,0.5C328.5,39.7,327.9,39.8,327.3,39.8z"/>
			<path class="st0" d="M339.6,34.9c-0.4-0.4-1-0.8-1.7-1c-0.3-0.1-0.7-0.2-1.1-0.2c-0.3-0.1-0.7-0.1-1-0.1c-0.6-0.2-0.9-0.3-1-0.4
				c-0.1-0.1-0.2-0.3-0.2-0.5c0-0.2,0.2-0.4,0.5-0.6c0.3-0.1,0.7-0.2,1.2-0.2c0.6,0,1.2,0.1,1.7,0.3c0.6,0.2,1.1,0.5,1.5,0.7h0.3
				v-2.4c-0.4-0.2-0.9-0.3-1.5-0.5c-0.7-0.1-1.3-0.2-2-0.2c-1.5,0-2.6,0.3-3.5,0.9c-0.8,0.6-1.2,1.4-1.2,2.3c0,0.7,0.2,1.3,0.6,1.8
				c0.4,0.5,1,0.8,1.9,1c0.3,0.1,0.7,0.2,1,0.2c0.4,0,0.7,0.1,0.9,0.2c0.5,0.1,0.7,0.2,1,0.3c0.1,0.1,0.2,0.3,0.2,0.5
				c0,0.2-0.1,0.4-0.4,0.6c-0.3,0.1-0.7,0.2-1.3,0.2c-0.4,0-0.9,0-1.2-0.1c-0.4-0.1-0.7-0.2-1-0.3c-0.4-0.2-0.7-0.3-0.8-0.4
				c-0.2-0.1-0.4-0.2-0.5-0.3h-0.3v2.5c0.4,0.2,0.9,0.4,1.6,0.5c0.7,0.2,1.4,0.2,2.2,0.2c1.5,0,2.7-0.3,3.5-0.9
				c0.9-0.6,1.3-1.4,1.3-2.4C340.2,35.9,339.9,35.3,339.6,34.9z"/>
		</g>
		<g>
			<path class="st0" d="M273.3,55.2c0,1.2-0.5,2.2-1.5,3c-1.1,0.8-2.4,1.2-4.2,1.2c-1,0-1.9-0.1-2.7-0.3c-0.8-0.2-1.4-0.4-2.1-0.7
				v-3h0.3c0.6,0.5,1.4,1,2.2,1.2c0.8,0.3,1.6,0.5,2.3,0.5c0.2,0,0.5,0,0.8-0.1c0.3,0,0.6-0.1,0.8-0.1c0.2-0.1,0.4-0.2,0.6-0.4
				c0.2-0.2,0.2-0.4,0.2-0.7c0-0.3-0.1-0.6-0.4-0.7c-0.2-0.2-0.5-0.3-1-0.4c-0.5-0.1-0.9-0.2-1.5-0.4c-0.5-0.1-1-0.2-1.4-0.4
				c-1-0.3-1.8-0.8-2.2-1.4c-0.5-0.6-0.7-1.3-0.7-2.2c0-1.2,0.5-2.1,1.6-2.9c1-0.8,2.3-1.1,3.9-1.1c0.8,0,1.6,0.1,2.4,0.3
				c0.8,0.1,1.5,0.3,2.1,0.6v2.9h-0.3c-0.5-0.4-1.1-0.7-1.8-1c-0.7-0.3-1.5-0.5-2.2-0.5c-0.3,0-0.6,0-0.8,0c-0.3,0-0.5,0.1-0.7,0.2
				c-0.2,0.1-0.4,0.2-0.6,0.4c-0.2,0.2-0.2,0.4-0.2,0.6c0,0.3,0.1,0.6,0.4,0.8c0.2,0.2,0.7,0.3,1.4,0.5c0.4,0.1,0.9,0.2,1.3,0.3
				c0.4,0.1,0.8,0.2,1.3,0.4c0.9,0.3,1.6,0.7,2.1,1.3C273.1,53.6,273.3,54.3,273.3,55.2z"/>
			<path class="st0" d="M284,54.4c0,1.5-0.5,2.8-1.3,3.7c-0.9,0.9-2.1,1.4-3.7,1.4c-1.6,0-2.9-0.5-3.7-1.4c-0.9-0.9-1.4-2.1-1.4-3.7
				c0-1.6,0.5-2.8,1.4-3.7c0.9-0.9,2.1-1.3,3.7-1.3c1.6,0,2.9,0.5,3.8,1.3C283.5,51.6,284,52.8,284,54.4z M280.3,56.6
				c0.2-0.2,0.3-0.5,0.5-0.9c0.1-0.3,0.1-0.8,0.1-1.4c0-0.6,0-1-0.1-1.4c-0.1-0.4-0.2-0.7-0.4-0.9c-0.2-0.2-0.4-0.4-0.6-0.5
				c-0.3-0.1-0.5-0.1-0.8-0.1c-0.3,0-0.6,0-0.8,0.1c-0.2,0.1-0.4,0.2-0.6,0.4c-0.2,0.2-0.3,0.5-0.4,0.9c-0.1,0.3-0.2,0.8-0.2,1.4
				c0,0.5,0.1,0.9,0.1,1.3c0.1,0.4,0.2,0.7,0.4,0.9c0.2,0.2,0.4,0.4,0.6,0.4c0.3,0.1,0.6,0.2,0.8,0.2c0.2,0,0.5,0,0.8-0.1
				C280,57,280.2,56.9,280.3,56.6z"/>
			<path class="st0" d="M288.3,59.1h-3V46h3V59.1z"/>
			<path class="st0" d="M299.4,59.1h-3v-1c-0.6,0.4-1,0.7-1.5,1c-0.5,0.2-1,0.4-1.6,0.4c-1,0-1.8-0.3-2.4-0.9
				c-0.6-0.6-0.8-1.5-0.8-2.7v-6.2h3v4.7c0,0.5,0,0.9,0,1.2c0,0.3,0.1,0.6,0.2,0.8c0.1,0.2,0.3,0.4,0.5,0.5c0.2,0.1,0.5,0.1,0.9,0.1
				c0.2,0,0.5,0,0.8-0.1c0.3-0.1,0.6-0.3,0.9-0.4v-6.7h3V59.1z"/>
			<path class="st0" d="M307.4,59c-0.4,0.1-0.7,0.1-1.1,0.2c-0.3,0.1-0.8,0.1-1.3,0.1c-1.1,0-2-0.2-2.6-0.7
				c-0.6-0.5-0.8-1.3-0.8-2.5v-4.4h-1.3v-2h1.3v-2.7h3v2.7h2.8v2h-2.8V55c0,0.3,0,0.6,0,0.9c0,0.3,0,0.5,0.1,0.7
				c0.1,0.2,0.2,0.4,0.4,0.5c0.2,0.1,0.5,0.2,0.8,0.2c0.2,0,0.3-0.1,0.6-0.1c0.3-0.1,0.4-0.1,0.5-0.2h0.3V59z"/>
			<path class="st0" d="M311.4,48.3h-3.2V46h3.2V48.3z M311.3,59.1h-3v-9.4h3V59.1z"/>
			<path class="st0" d="M322.7,54.4c0,1.5-0.5,2.8-1.3,3.7c-0.9,0.9-2.1,1.4-3.7,1.4c-1.6,0-2.9-0.5-3.7-1.4
				c-0.9-0.9-1.4-2.1-1.4-3.7c0-1.6,0.5-2.8,1.4-3.7c0.9-0.9,2.1-1.3,3.7-1.3c1.6,0,2.9,0.5,3.7,1.3
				C322.2,51.6,322.7,52.8,322.7,54.4z M319,56.6c0.2-0.2,0.3-0.5,0.4-0.9c0.1-0.3,0.2-0.8,0.2-1.4c0-0.6,0-1-0.2-1.4
				c-0.1-0.4-0.2-0.7-0.4-0.9c-0.2-0.2-0.4-0.4-0.7-0.5c-0.2-0.1-0.5-0.1-0.8-0.1c-0.3,0-0.5,0-0.7,0.1c-0.2,0.1-0.4,0.2-0.7,0.4
				c-0.2,0.2-0.3,0.5-0.4,0.9c-0.1,0.3-0.2,0.8-0.2,1.4c0,0.5,0.1,0.9,0.2,1.3c0.1,0.4,0.2,0.7,0.4,0.9c0.2,0.2,0.4,0.4,0.6,0.4
				c0.2,0.1,0.5,0.2,0.8,0.2c0.3,0,0.5,0,0.8-0.1C318.7,57,318.9,56.9,319,56.6z"/>
			<path class="st0" d="M333.3,59.1h-3v-4.7c0-0.4,0-0.8-0.1-1.2c0-0.3-0.1-0.7-0.2-0.8c-0.1-0.2-0.2-0.4-0.5-0.5
				c-0.2-0.1-0.5-0.1-0.9-0.1c-0.3,0-0.5,0.1-0.8,0.1c-0.3,0.1-0.6,0.2-0.9,0.4v6.7h-3v-9.4h3v1c0.5-0.4,1-0.7,1.5-1
				c0.5-0.2,1-0.3,1.6-0.3c1,0,1.8,0.3,2.3,0.9c0.6,0.6,0.9,1.5,0.9,2.7V59.1z"/>
		</g>
	</g>
	<g>
		<path class="st0" d="M96.9,37.1c-3,2.5-7.4,3.8-13,3.8H73.1v18.6H62.4V7.6h22.3c5.1,0,9.2,1.3,12.2,4c3.1,2.7,4.6,6.8,4.6,12.4
			C101.5,30.2,99.9,34.5,96.9,37.1z M88.7,18.3c-1.4-1.2-3.3-1.8-5.8-1.8h-9.8v15.4h9.8c2.5,0,4.4-0.6,5.8-1.9c1.4-1.2,2-3.2,2-6
			C90.7,21.4,90,19.4,88.7,18.3z"/>
		<path class="st0" d="M115.9,20.5v23.3c0,2.2,0.2,3.9,0.8,5c1,2,2.8,3,5.4,3c3.5,0,5.8-1.4,7.1-4.2c0.6-1.5,1-3.5,1-6V20.5h10.3v39
			h-9.9v-5.7c-0.1,0.1-0.3,0.5-0.7,1.1c-0.4,0.6-0.9,1.2-1.4,1.6c-1.6,1.4-3.1,2.4-4.6,2.9c-1.5,0.6-3.2,0.8-5.2,0.8
			c-5.7,0-9.6-2.1-11.6-6.3c-1.1-2.3-1.7-5.6-1.7-10.1V20.5H115.9z"/>
		<path class="st0" d="M169,19.5c0.1,0,0.4,0,0.8,0.1v10.3c-0.6,0-1.2,0-1.7,0c-0.5,0-0.9,0-1.2,0c-4.1,0-6.8,1.3-8.2,4
			c-0.8,1.5-1.2,3.8-1.2,7v18.7h-10.1v-39h9.6v6.7c1.5-2.6,3-4.4,4.1-5.3c1.9-1.6,4.4-2.4,7.4-2.4C168.6,19.5,168.8,19.5,169,19.5z"
			/>
		<path class="st0" d="M192.2,20.4c2.5,1,4.5,2.9,6,5.7v-5.6h10v36.9c0,5-0.8,8.8-2.5,11.4c-2.9,4.4-8.5,6.6-16.7,6.6
			c-5,0-9-1-12.2-3c-3.2-1.9-4.9-4.8-5.2-8.7h11c0.3,1.2,0.7,2,1.4,2.6c1.1,0.9,2.9,1.4,5.5,1.4c3.7,0,6.1-1.2,7.3-3.7
			c0.8-1.6,1.2-4.2,1.2-7.9v-2.5c-1,1.6-2,2.9-3.2,3.8c-2,1.5-4.6,2.3-7.8,2.3c-5,0-9-1.8-12-5.3c-3-3.5-4.5-8.3-4.5-14.3
			c0-5.8,1.5-10.7,4.3-14.6c2.9-3.9,6.9-5.9,12.2-5.9C189.1,19.5,190.7,19.8,192.2,20.4z M195.6,48.4c1.6-1.8,2.5-4.7,2.5-8.6
			c0-3.8-0.8-6.6-2.3-8.5c-1.6-2-3.6-2.9-6.2-2.9c-3.5,0-6,1.7-7.3,5.1c-0.7,1.8-1.1,4-1.1,6.6c0,2.3,0.4,4.3,1.1,6.1
			c1.4,3.3,3.8,5,7.3,5C191.9,51.1,193.9,50.2,195.6,48.4z"/>
		<path class="st0" d="M247.2,54.7c-3.3,4.1-8.3,6.1-14.9,6.1c-6.7,0-11.7-2-15-6.1c-3.3-4.1-4.9-8.9-4.9-14.7
			c0-5.6,1.6-10.4,4.9-14.6c3.3-4.1,8.3-6.2,15-6.2c6.7,0,11.7,2.1,14.9,6.2c3.3,4.2,4.9,9,4.9,14.6
			C252.1,45.8,250.5,50.7,247.2,54.7z M239.1,49.1c1.6-2.1,2.4-5.2,2.4-9c0-3.9-0.8-6.9-2.4-9c-1.6-2.1-3.9-3.2-6.9-3.2
			c-3,0-5.3,1.1-7,3.2c-1.6,2.1-2.4,5.2-2.4,9c0,3.9,0.8,6.9,2.4,9c1.6,2.2,3.9,3.2,7,3.2C235.2,52.3,237.5,51.3,239.1,49.1z"/>
		<path class="st0" d="M96.9,37.1c-3,2.5-7.4,3.8-13,3.8H73.1v18.6H62.4V7.6h22.3c5.1,0,9.2,1.3,12.2,4c3.1,2.7,4.6,6.8,4.6,12.4
			C101.5,30.2,99.9,34.5,96.9,37.1z M88.7,18.3c-1.4-1.2-3.3-1.8-5.8-1.8h-9.8v15.4h9.8c2.5,0,4.4-0.6,5.8-1.9c1.4-1.2,2-3.2,2-6
			C90.7,21.4,90,19.4,88.7,18.3z"/>
	</g>
</g>
</svg>
